<?xml version="1.0" standalone="no"?>
<!DOCTYPE svg PUBLIC "-//W3C//DTD SVG 20010904//EN"
 "http://www.w3.org/TR/2001/REC-SVG-20010904/DTD/svg10.dtd">
<svg version="1.0" xmlns="http://www.w3.org/2000/svg"
 width="1024.000000pt" height="1024.000000pt" viewBox="0 0 1024.000000 1024.000000"
 preserveAspectRatio="xMidYMid meet">
<metadata>
Created by potrace 1.11, written by Peter Selinger 2001-2013
</metadata>
<g transform="translate(0.000000,1024.000000) scale(0.100000,-0.100000)"
fill="#000000" stroke="none">
<path d="M3408 8015 c-2 -1 -34 -6 -73 -10 -219 -21 -486 -85 -702 -168 -50
-20 -99 -40 -110 -46 -10 -5 -45 -22 -78 -38 -133 -61 -276 -148 -425 -257
-527 -385 -902 -961 -1039 -1591 -19 -87 -25 -122 -36 -202 -3 -21 -8 -52 -10
-69 -7 -43 -17 -214 -17 -294 0 -83 12 -321 16 -329 2 -3 7 -31 10 -61 8 -69
14 -103 62 -320 9 -40 92 -286 115 -338 190 -436 442 -774 794 -1063 359 -295
820 -500 1292 -575 21 -3 41 -8 45 -10 12 -7 259 -18 368 -15 99 2 1877 8
3340 11 700 2 780 6 948 44 57 13 146 38 170 48 53 21 88 35 122 49 19 7 66
30 104 51 38 21 70 38 72 38 8 0 110 74 176 127 236 188 413 438 506 713 50
147 63 198 78 306 11 73 13 359 3 424 -38 267 -116 472 -263 692 -71 106 -111
154 -216 256 -73 72 -237 202 -254 202 -3 0 -22 11 -42 25 -57 39 -180 96
-281 130 -51 18 -91 34 -89 36 4 4 9 33 24 144 10 73 8 284 -3 379 -11 103
-57 278 -104 396 -110 280 -299 526 -542 704 -57 42 -108 80 -114 84 -28 20
-219 113 -280 135 -236 88 -497 121 -752 95 -218 -22 -487 -113 -662 -223 -46
-29 -81 -53 -127 -87 -57 -43 -58 -43 -76 -25 -7 7 -51 42 -98 78 -394 304
-833 481 -1345 543 -93 11 -497 20 -507 11z"/>
</g>
</svg>
