<?xml version="1.0" standalone="no"?>
<!DOCTYPE svg PUBLIC "-//W3C//DTD SVG 20010904//EN"
 "http://www.w3.org/TR/2001/REC-SVG-20010904/DTD/svg10.dtd">
<svg version="1.0" xmlns="http://www.w3.org/2000/svg"
 width="500.000000pt" height="500.000000pt" viewBox="0 0 500.000000 500.000000"
 preserveAspectRatio="xMidYMid meet">
<metadata>
Created by potrace 1.11, written by Peter Selinger 2001-2013
</metadata>
<g transform="translate(0.000000,500.000000) scale(0.100000,-0.100000)"
fill="#000000" stroke="none">
<path d="M1059 4608 c10 -18 51 -89 90 -158 39 -69 75 -132 80 -140 5 -8 88
-150 183 -314 95 -165 188 -325 206 -355 18 -31 37 -65 42 -76 6 -11 20 -36
31 -55 20 -33 224 -385 267 -460 11 -19 52 -91 92 -160 40 -69 84 -145 98
-170 14 -25 44 -76 67 -115 23 -38 45 -77 49 -85 4 -8 12 -24 19 -35 7 -11 37
-63 67 -115 30 -52 62 -107 70 -121 8 -14 28 -49 44 -77 16 -29 32 -52 35 -52
7 0 16 13 53 80 14 25 49 86 78 135 29 50 64 110 78 135 13 25 39 70 57 100
18 30 42 71 52 90 66 117 258 449 274 472 11 15 19 29 19 32 0 2 39 71 86 153
48 81 98 168 112 193 35 63 535 927 561 970 11 19 24 42 28 50 4 8 19 36 35
63 l27 47 -288 0 -289 0 -31 -50 c-17 -28 -31 -55 -31 -60 0 -6 -3 -10 -7 -10
-5 0 -13 -10 -19 -23 -12 -25 -770 -1322 -789 -1350 -11 -16 -48 43 -298 475
-156 271 -293 509 -304 528 -11 19 -54 94 -95 165 -42 72 -85 146 -96 165 -10
19 -36 63 -56 98 l-37 62 -289 0 -290 0 19 -32z"/>
<path d="M184 4338 c7 -13 120 -205 249 -428 129 -223 247 -425 261 -450 15
-25 29 -53 33 -62 3 -10 9 -18 14 -18 5 0 9 -4 9 -9 0 -5 46 -87 101 -182 56
-96 111 -190 121 -209 11 -19 42 -72 69 -118 27 -45 49 -87 49 -92 0 -6 5 -10
10 -10 6 0 10 -4 10 -9 0 -5 46 -87 102 -182 55 -96 111 -192 123 -214 13 -22
69 -119 125 -215 56 -96 112 -191 122 -210 76 -133 399 -688 434 -746 24 -40
44 -74 44 -76 0 -3 25 -46 55 -97 31 -50 65 -108 77 -129 147 -259 302 -522
308 -522 3 0 64 100 135 223 71 122 205 352 297 510 92 159 168 291 168 293 0
3 9 17 19 32 10 15 62 101 114 192 52 91 209 361 348 600 139 239 267 460 284
490 51 88 373 642 610 1050 120 206 249 428 286 493 l68 117 -463 0 -463 0
-64 -111 c-35 -61 -73 -125 -84 -144 -22 -36 -560 -948 -586 -993 -9 -15 -112
-189 -229 -387 -117 -198 -224 -380 -238 -405 -13 -25 -33 -57 -43 -72 -11
-14 -19 -28 -19 -31 0 -2 -31 -57 -70 -121 -38 -64 -70 -121 -70 -128 0 -7 -3
-8 -9 -2 -8 8 -134 221 -198 334 -11 19 -66 113 -122 209 -55 96 -101 178
-101 182 0 5 -4 9 -10 9 -5 0 -10 4 -10 9 0 5 -27 55 -60 111 -33 56 -60 103
-60 105 0 2 -18 33 -41 70 -22 37 -49 82 -59 99 -9 18 -111 194 -227 391 -115
198 -276 476 -358 618 l-150 257 -463 0 -462 0 14 -22z"/>
</g>
</svg>
